<?xml version="1.0" encoding="UTF-8"?><svg id="Layer_1" xmlns="http://www.w3.org/2000/svg" xmlns:xlink="http://www.w3.org/1999/xlink" viewBox="0 0 751.28 239.86"><defs><style>.cls-1{fill:url(#linear-gradient-2);}.cls-2{fill:url(#linear-gradient-17);}.cls-3{fill:url(#linear-gradient-15);}.cls-4{fill:url(#linear-gradient-18);}.cls-5{fill:url(#linear-gradient-28);}.cls-6{fill:url(#linear-gradient-14);}.cls-7{fill:url(#linear-gradient-36);}.cls-8{fill:url(#linear-gradient-20);}.cls-9{fill:url(#linear-gradient-6);}.cls-10{fill:url(#linear-gradient-35);}.cls-11{fill:url(#linear-gradient-32);}.cls-12{fill:url(#linear-gradient-11);}.cls-13{fill:url(#linear-gradient-10);}.cls-14{fill:url(#linear-gradient-37);}.cls-15{fill:url(#linear-gradient-16);}.cls-16{fill:url(#linear-gradient-31);}.cls-17{fill:url(#linear-gradient-21);}.cls-18{fill:url(#linear-gradient-25);}.cls-19{fill:url(#linear-gradient-5);}.cls-20{fill:url(#linear-gradient-34);}.cls-21{fill:url(#linear-gradient-7);}.cls-22{fill:url(#linear-gradient-24);}.cls-23{fill:url(#linear-gradient-9);}.cls-24{fill:url(#linear-gradient-22);}.cls-25{fill:url(#linear-gradient-3);}.cls-26{fill:url(#linear-gradient);}.cls-27{fill:url(#linear-gradient-27);}.cls-28{fill:url(#linear-gradient-33);}.cls-29{fill:url(#linear-gradient-29);}.cls-30{fill:url(#linear-gradient-30);}.cls-31{fill:url(#linear-gradient-23);}.cls-32{fill:url(#linear-gradient-19);}.cls-33{fill:url(#linear-gradient-4);}.cls-34{fill:url(#linear-gradient-8);}.cls-35{fill:url(#linear-gradient-12);}.cls-36{fill:url(#linear-gradient-13);}.cls-37{fill:url(#linear-gradient-26);}</style><linearGradient id="linear-gradient" x1="294.18" y1="150.57" x2="294.18" y2="84.2" gradientUnits="userSpaceOnUse"><stop offset="0" stop-color="#001bb2"/><stop offset=".99" stop-color="#29d5fb"/></linearGradient><linearGradient id="linear-gradient-2" x1="352.71" y1="150.57" x2="352.71" y2="84.2" xlink:href="#linear-gradient"/><linearGradient id="linear-gradient-3" x1="391.98" y1="150.57" x2="391.98" y2="84.2" xlink:href="#linear-gradient"/><linearGradient id="linear-gradient-4" x1="426.48" y1="150.57" x2="426.48" y2="84.2" xlink:href="#linear-gradient"/><linearGradient id="linear-gradient-5" x1="490.79" y1="126.57" x2="490.79" y2="73.63" gradientUnits="userSpaceOnUse"><stop offset="0" stop-color="#6e0095"/><stop offset=".99" stop-color="#db76f6"/></linearGradient><linearGradient id="linear-gradient-6" x1="549.16" y1="126.57" x2="549.16" y2="73.63" xlink:href="#linear-gradient-5"/><linearGradient id="linear-gradient-7" x1="600.13" y1="126.57" x2="600.13" y2="73.63" xlink:href="#linear-gradient-5"/><linearGradient id="linear-gradient-8" x1="648.55" y1="126.57" x2="648.55" y2="73.63" xlink:href="#linear-gradient-5"/><linearGradient id="linear-gradient-9" x1="694.19" y1="126.57" x2="694.19" y2="73.63" xlink:href="#linear-gradient-5"/><linearGradient id="linear-gradient-10" x1="738.31" y1="126.57" x2="738.31" y2="73.63" xlink:href="#linear-gradient-5"/><linearGradient id="linear-gradient-11" x1="266.4" y1="183.19" x2="266.4" y2="131.98" gradientUnits="userSpaceOnUse"><stop offset="0" stop-color="#1160e5"/><stop offset=".99" stop-color="#63e0fe"/></linearGradient><linearGradient id="linear-gradient-12" x1="284.94" x2="284.94" xlink:href="#linear-gradient-11"/><linearGradient id="linear-gradient-13" x1="305.82" x2="305.82" xlink:href="#linear-gradient-11"/><linearGradient id="linear-gradient-14" x1="323.87" x2="323.87" xlink:href="#linear-gradient-11"/><linearGradient id="linear-gradient-15" x1="342.86" y1="183.19" x2="342.86" y2="131.98" xlink:href="#linear-gradient-11"/><linearGradient id="linear-gradient-16" x1="375.73" y1="183.19" x2="375.73" y2="131.98" xlink:href="#linear-gradient-11"/><linearGradient id="linear-gradient-17" x1="402.1" y1="183.19" x2="402.1" y2="131.98" xlink:href="#linear-gradient-11"/><linearGradient id="linear-gradient-18" x1="423.65" y1="183.19" x2="423.65" y2="131.98" xlink:href="#linear-gradient-11"/><linearGradient id="linear-gradient-19" x1="444.4" x2="444.4" xlink:href="#linear-gradient-11"/><linearGradient id="linear-gradient-20" x1="464.95" x2="464.95" xlink:href="#linear-gradient-11"/><linearGradient id="linear-gradient-21" x1="480.44" y1="183.19" x2="480.44" y2="131.98" xlink:href="#linear-gradient-11"/><linearGradient id="linear-gradient-22" x1="504.6" x2="504.6" xlink:href="#linear-gradient-11"/><linearGradient id="linear-gradient-23" x1="525.96" x2="525.96" xlink:href="#linear-gradient-11"/><linearGradient id="linear-gradient-24" x1="546.63" y1="183.19" x2="546.63" y2="131.98" xlink:href="#linear-gradient-11"/><linearGradient id="linear-gradient-25" x1="568.08" y1="183.19" x2="568.08" y2="131.98" xlink:href="#linear-gradient-11"/><linearGradient id="linear-gradient-26" x1="589.93" x2="589.93" xlink:href="#linear-gradient-11"/><linearGradient id="linear-gradient-27" x1="608.92" y1="183.19" x2="608.92" y2="131.98" xlink:href="#linear-gradient-11"/><linearGradient id="linear-gradient-28" x1="637.32" y1="183.19" x2="637.32" y2="131.98" xlink:href="#linear-gradient-11"/><linearGradient id="linear-gradient-29" x1="657.7" y1="183.19" x2="657.7" y2="131.98" xlink:href="#linear-gradient-11"/><linearGradient id="linear-gradient-30" x1="680.7" y1="183.19" x2="680.7" y2="131.98" xlink:href="#linear-gradient-11"/><linearGradient id="linear-gradient-31" x1="701.18" y1="183.19" x2="701.18" y2="131.98" xlink:href="#linear-gradient-11"/><linearGradient id="linear-gradient-32" x1="722.34" x2="722.34" xlink:href="#linear-gradient-11"/><linearGradient id="linear-gradient-33" x1="743.17" x2="743.17" xlink:href="#linear-gradient-11"/><linearGradient id="linear-gradient-34" x1="40.76" y1="172.93" x2="40.76" y2="55.69" xlink:href="#linear-gradient-11"/><linearGradient id="linear-gradient-35" x1="96.81" y1="179.05" x2="96.81" y2="85.97" gradientUnits="userSpaceOnUse"><stop offset="0" stop-color="#571b8f"/><stop offset=".99" stop-color="#db76f6"/></linearGradient><linearGradient id="linear-gradient-36" x1="96.92" y1="184.32" x2="96.92" y2="45.25" xlink:href="#linear-gradient-35"/><linearGradient id="linear-gradient-37" x1="166.91" y1="172.93" x2="166.91" y2="55.69" xlink:href="#linear-gradient-11"/></defs><path class="cls-26" d="m329.49,124.68h-9.9l-5.37-37.09-20.06,39.78-20.06-39.78-5.33,37.09h-9.9l10.57-65.58,24.71,49.26,24.76-49.26,10.57,65.58Z"/><path class="cls-1" d="m376.95,80.33l-29.54,70.12h-10.2l11.25-26.56-19.97-43.56h10.45l14.52,32.1,13.47-32.1h10.03Z"/><path class="cls-25" d="m403.98,88.72h-8.64v35.96h-9.53v-35.96h-5.83v-8.39h5.83v-14.64h9.53v14.64h8.64v8.39Z"/><path class="cls-33" d="m446.29,124.68h-9.53v-26.48c0-7.44-2.76-11.16-8.27-11.16-3.58,0-6.45,1.09-8.6,3.27-2.41,2.46-3.61,6.02-3.61,10.66v23.71h-9.61V53.77h9.61v27.53c0,2.21-.06,3.93-.17,5.16h.17c1.23-2.52,3.34-4.5,6.34-5.96,2.6-1.26,5.33-1.89,8.18-1.89,4.9,0,8.7,1.59,11.41,4.78,2.71,3.19,4.07,7.76,4.07,13.72v27.57Z"/><path class="cls-19" d="m531.68,61.7l-21.69,65.67-19.18-46.28-19.13,46.28-21.78-65.67h9.99l13.22,41.33,17.71-43.43,17.71,43.43,13.22-41.33h9.94Z"/><path class="cls-9" d="m572.72,102.78h-37.14c0,4.59,1.18,8.27,3.53,11.04,2.46,2.88,5.86,4.32,10.2,4.32,6.27,0,10.31-2.41,12.13-7.22h9.94c-3.72,10.3-11.08,15.44-22.07,15.44-7.27,0-13.09-2.33-17.46-7.01-4.17-4.45-6.25-10.07-6.25-16.87s2.25-12.33,6.76-16.93c4.5-4.6,10.16-6.9,16.95-6.9s12.61,2.18,16.93,6.55c4.32,4.36,6.48,10.22,6.48,17.58Zm-10.28-6.5c-1.09-3.1-2.8-5.53-5.14-7.28-2.34-1.75-5-2.62-7.99-2.62s-5.43.87-7.72,2.6c-2.41,1.79-4.13,4.22-5.16,7.3h26.02Z"/><path class="cls-21" d="m623.29,124.64h-9.44v-7.01c-3.39,5.82-8.45,8.73-15.19,8.73s-12.21-2.32-16.16-6.96c-3.69-4.36-5.54-10-5.54-16.91s2.07-12.43,6.21-16.99c4.14-4.56,9.32-6.84,15.53-6.84,6.85,0,11.89,2.76,15.11,8.27l.04-.04v-6.55h9.44v44.31Zm-9.44-22.95c0-4.17-1.16-7.59-3.48-10.28-2.41-2.83-5.61-4.24-9.61-4.24s-7.19,1.41-9.74,4.22c-2.55,2.81-3.82,6.51-3.82,11.1s1.21,8.13,3.63,10.95c2.42,2.83,5.57,4.24,9.46,4.24,9.04,0,13.55-5.33,13.55-15.99Z"/><path class="cls-34" d="m670.75,80.33l-22.2,46.49-22.2-46.49h10.03l12.17,27.36,12.17-27.36h10.03Z"/><path class="cls-23" d="m717.75,102.78h-37.14c0,4.59,1.18,8.27,3.53,11.04,2.46,2.88,5.86,4.32,10.2,4.32,6.27,0,10.31-2.41,12.13-7.22h9.94c-3.72,10.3-11.08,15.44-22.07,15.44-7.27,0-13.09-2.33-17.46-7.01-4.17-4.45-6.25-10.07-6.25-16.87s2.25-12.33,6.76-16.93c4.5-4.6,10.16-6.9,16.95-6.9s12.61,2.18,16.93,6.55c4.32,4.36,6.48,10.22,6.48,17.58Zm-10.28-6.5c-1.09-3.1-2.8-5.53-5.14-7.28-2.34-1.75-5-2.62-7.99-2.62s-5.43.87-7.72,2.6c-2.41,1.79-4.13,4.22-5.16,7.3h26.02Z"/><path class="cls-13" d="m751.28,88.97c-1.87-1.04-3.82-1.55-5.83-1.55-2.71,0-4.99.95-6.84,2.85-2.38,2.49-3.57,6.34-3.57,11.54v22.87h-9.69v-44.35h9.44v6.38c2.55-5.23,6.13-7.85,10.74-7.85,1.9,0,3.82.49,5.75,1.47v8.64Z"/><path class="cls-12" d="m264.92,159.77h-6.06v-2.66h15.07v2.66h-6.03v15.78h-2.98v-15.78Z"/><path class="cls-35" d="m289.92,171.67h-9.98l-1.74,3.87h-3.13l8.27-18.44h3.21l8.27,18.44h-3.13l-1.76-3.87Zm-4.98-11.46l-3.9,8.77h7.8l-3.9-8.77Z"/><path class="cls-36" d="m302.44,157.1v15.7h9.72v2.74h-12.67v-18.44h2.95Z"/><path class="cls-6" d="m330.68,175.54h-13.62v-18.44h13.54v2.87h-10.59v4.98h10.17v2.74h-10.17v4.95h10.67v2.9Z"/><path class="cls-3" d="m347.59,161.19c-.87-1.26-2.63-2.03-4.56-2.05-2.48,0-4.27,1.03-4.27,2.79s2.05,2.29,4.48,2.63c3.79.53,7.4,1.58,7.4,5.72-.03,4.13-3.79,5.69-7.64,5.69-3.53,0-6.24-1.08-7.93-4.19l2.21-1.48c1.32,2.24,3.61,3.03,5.74,3.03s4.66-.74,4.66-3.05c0-2-2.13-2.69-4.71-3.03-3.66-.5-7.14-1.42-7.14-5.37-.03-3.82,3.79-5.29,7.11-5.29,2.66,0,5.32.63,6.87,3.11l-2.24,1.5Z"/><path class="cls-15" d="m382.84,175.57h-2.61l-2.45-6.51-2.03-6.19-2.03,6.22-2.42,6.48h-2.58l-6.69-18.46h3.29l4.69,14.2,4.77-14.2h1.9l4.87,14.2,4.58-14.2h3.29l-6.59,18.46Z"/><path class="cls-2" d="m411.53,166.4c0,4.98-3.03,9.53-9.43,9.53s-9.43-4.66-9.43-9.51c0-5.61,3.92-9.67,9.48-9.67,6.3.03,9.38,4.66,9.38,9.64Zm-9.43,6.82c4.58,0,6.51-3.24,6.51-6.77s-1.95-6.93-6.45-7.01c-4.27,0-6.56,2.98-6.56,7.01.05,3.27,1.95,6.77,6.51,6.77Z"/><path class="cls-4" d="m425.21,175.62h-3.08l-7.66-18.52h3.32l5.87,14.99,5.9-14.99h3.29l-7.64,18.52Z"/><path class="cls-32" d="m451.21,175.54h-13.62v-18.44h13.54v2.87h-10.59v4.98h10.17v2.74h-10.17v4.95h10.67v2.9Z"/><path class="cls-8" d="m469.83,170.22v-13.12h2.95v18.44h-2.24l-10.46-13.01v13.01h-2.98v-18.44h2.26l10.46,13.12Z"/><path class="cls-17" d="m480.93,178.07h-1.63l.58-2.5c-.66-.13-1.11-.58-1.11-1.32,0-2,3.35-2.08,3.35.08,0,.4-.18.74-1.19,3.74Z"/><path class="cls-24" d="m509.48,175.54v-7.67h-9.75v7.67h-2.95v-18.44h2.95v8.03h9.75v-8.03h2.92v18.44h-2.92Z"/><path class="cls-31" d="m532.77,175.54h-13.62v-18.44h13.54v2.87h-10.59v4.98h10.17v2.74h-10.17v4.95h10.67v2.9Z"/><path class="cls-22" d="m554.58,175.54h-3.45l-5.61-6.37h-3.9v6.37h-2.95v-18.46c2.87,0,5.72.03,8.59.03,4.27,0,6.51,2.92,6.51,6.03,0,2.63-1.37,5.21-5,5.74l5.5,6.14.32.53Zm-12.96-15.75v6.69h5.61c2.45,0,3.53-1.55,3.53-3.29s-1.08-3.4-3.5-3.4h-5.64Z"/><path class="cls-18" d="m577.5,166.4c0,4.98-3.03,9.53-9.43,9.53s-9.43-4.66-9.43-9.51c0-5.61,3.92-9.67,9.48-9.67,6.3.03,9.38,4.66,9.38,9.64Zm-9.43,6.82c4.58,0,6.51-3.24,6.51-6.77s-1.95-6.93-6.45-7.01c-4.27,0-6.56,2.98-6.56,7.01.05,3.27,1.95,6.77,6.5,6.77Z"/><path class="cls-37" d="m596.74,175.54h-13.62v-18.44h13.54v2.87h-10.59v4.98h10.17v2.74h-10.17v4.95h10.67v2.9Z"/><path class="cls-27" d="m613.65,161.19c-.87-1.26-2.63-2.03-4.56-2.05-2.48,0-4.27,1.03-4.27,2.79s2.05,2.29,4.48,2.63c3.79.53,7.4,1.58,7.4,5.72-.03,4.13-3.79,5.69-7.64,5.69-3.53,0-6.24-1.08-7.93-4.19l2.21-1.48c1.32,2.24,3.61,3.03,5.74,3.03s4.66-.74,4.66-3.05c0-2-2.13-2.69-4.71-3.03-3.66-.5-7.14-1.42-7.14-5.37-.03-3.82,3.79-5.29,7.11-5.29,2.66,0,5.32.63,6.88,3.11l-2.24,1.5Z"/><path class="cls-5" d="m630.81,175.54v-18.41h13.04v2.87h-10.09v5.61h9.59v2.74h-9.59v7.19h-2.95Z"/><path class="cls-29" d="m667.13,166.4c0,4.98-3.03,9.53-9.43,9.53s-9.43-4.66-9.43-9.51c0-5.61,3.92-9.67,9.48-9.67,6.3.03,9.38,4.66,9.38,9.64Zm-9.43,6.82c4.58,0,6.51-3.24,6.51-6.77s-1.95-6.93-6.45-7.01c-4.27,0-6.56,2.98-6.56,7.01.05,3.27,1.95,6.77,6.51,6.77Z"/><path class="cls-30" d="m688.66,175.54h-3.45l-5.61-6.37h-3.9v6.37h-2.95v-18.46c2.87,0,5.72.03,8.59.03,4.27,0,6.51,2.92,6.51,6.03,0,2.63-1.37,5.21-5,5.74l5.5,6.14.32.53Zm-12.96-15.75v6.69h5.61c2.45,0,3.53-1.55,3.53-3.29s-1.08-3.4-3.5-3.4h-5.64Z"/><path class="cls-16" d="m707.39,161.35c-1.32-1.29-3.27-1.98-4.98-1.98-4.32,0-6.82,3.24-6.8,7.14,0,3.37,2,6.64,6.8,6.64,1.58,0,3.03-.4,4.5-1.63v-3.74h-5.14v-2.63h7.87v7.56c-1.84,2.03-4.13,3.21-7.24,3.21-6.77,0-9.69-4.5-9.69-9.4,0-5.32,3.4-9.85,9.69-9.85,2.45,0,4.93.92,6.82,2.79l-1.84,1.9Z"/><path class="cls-11" d="m729.15,175.54h-13.62v-18.44h13.54v2.87h-10.59v4.98h10.17v2.74h-10.17v4.95h10.67v2.9Z"/><path class="cls-28" d="m742.03,157.1c6.3,0,9.16,4.5,9.24,9.06.1,4.66-2.79,9.38-9.24,9.38h-6.98v-18.44h6.98Zm-4.06,15.59h4.06c4.5,0,6.4-3.32,6.32-6.56-.08-3.11-1.98-6.22-6.32-6.22h-4.06v12.77Z"/><path class="cls-20" d="m16.56,117.58c3.99-28.67,19.44-49.2,44.98-62.39,6.28-3.24,13.17-6.64,19.99-8.74l-.03-14.82s-12.14,2.94-20.22,6.34C29.72,51.28,9.28,74.39,2.3,108.14c-7.17,34.68,2.51,64.65,27.54,89.67,1.21,1.21,2.55,2.1,4.31,2.3,3.51.41,6.46-.6,8.07-3.82,1.9-3.82.76-7.07-2.19-10.13-18.46-19.19-27.19-41.82-23.46-68.58Z"/><path class="cls-10" d="m96.87,202.61c-3.89,8.66-10.04,14.72-18.62,18.66,8.77,3.99,14.65,10.1,18.65,18.59,3.78-8.75,10.1-14.51,18.47-18.67-8.59-3.92-14.56-9.93-18.49-18.58Z"/><path class="cls-7" d="m145.06,86.34c0,7.73,0,14.64,0,21.55,0,6.75-1.92,9.7-6.3,9.67-4.33-.03-6.1-2.87-6.09-9.84.07-31.26.14-68.69.21-99.95,0-4.29-3.47-7.78-7.76-7.78s-7.77,3.48-7.76,7.77c.04,38.09.09,82.34.13,120.43,0,1.67.1,3.35-.1,4.99-.47,3.94-3.36,6.55-6.91,6.4-3.32-.14-5.87-2.84-6.19-6.64-.09-1.1-.05-2.22-.05-3.33,0-10.97,0-21.93.02-32.9.02-18.14.05-43.46.06-63.3,0-4.25-3.44-7.68-7.69-7.68h0c-4.25,0-7.69,3.43-7.69,7.68.03,36.3.09,79.59.14,114.81,0,1.66.1,3.35-.14,4.99-.51,3.54-2.67,5.43-6.26,5.34-3.39-.08-5.41-1.98-5.92-5.29-.23-1.49-.12-3.05-.12-4.57.01-17.21.03-50.11.04-72.24,0-4.02-2.93-7.59-6.93-7.97-4.59-.44-8.44,3.16-8.44,7.66.02,15.51.04,38.01,0,47.21-.02,4.44-2.65,7.41-6.21,7.48-3.59.07-6.2-2.75-6.56-7.2-.13-1.52-.08-3.05-.08-4.58,0-9.16.05-24.16,0-33.32l-1.15,1.32c-14.31,13.33-19.95,42.27-11.07,64.53,11.12,27.86,37.22,43.7,66.94,41.19,26.09-2.21,52.51-22.03,57.94-54.59,3.25-19.47-4.75-43.45-16.06-51.84Z"/><path class="cls-14" d="m193.39,122.35c-2.19-33.6-18.19-59.3-46.59-77.29-1.89-1.2-6.6-3.94-6.6-3.94v18.31c2.02,1.5,4.02,2.97,6,4.46,29.52,22.31,40.03,63.48,24.83,97.11-4.33,9.59-10.29,17.99-17.7,25.46-4.5,4.53-3.69,11.03,1.51,13.16,3.93,1.6,7.33.25,10.18-2.68,20.14-20.79,30.26-45.59,28.37-74.58Z"/></svg>