<svg width="26" height="26" viewBox="0 0 26 26" fill="none" xmlns="http://www.w3.org/2000/svg">
<g id="instagram 1">
<path id="Vector" d="M14.1175 2.19763C14.8777 2.19471 15.6378 2.20236 16.3978 2.22055L16.5999 2.22784C16.8332 2.23617 17.0634 2.24659 17.3415 2.25909C18.4499 2.31117 19.2061 2.48617 19.8697 2.74346C20.5572 3.00805 21.1363 3.36638 21.7155 3.94555C22.245 4.46597 22.6549 5.0955 22.9165 5.79034C23.1738 6.45388 23.3488 7.21117 23.4009 8.31952C23.4134 8.59658 23.4238 8.82783 23.4322 9.06121L23.4384 9.26327C23.4569 10.0229 23.4649 10.7827 23.4624 11.5425L23.4634 12.3195V13.6841C23.466 14.4442 23.4579 15.2044 23.4394 15.9643L23.4332 16.1664C23.4249 16.3997 23.4144 16.63 23.4019 16.9081C23.3499 18.0164 23.1728 18.7726 22.9165 19.4362C22.6557 20.1317 22.2458 20.7618 21.7155 21.282C21.1946 21.8115 20.5648 22.2214 19.8697 22.4831C19.2061 22.7403 18.4499 22.9153 17.3415 22.9675C17.0634 22.98 16.8332 22.9903 16.5999 22.9987L16.3978 23.005C15.6378 23.0234 14.8777 23.0314 14.1175 23.0289L13.3405 23.03H11.9769C11.2168 23.0325 10.4567 23.0245 9.69673 23.006L9.49467 22.9997C9.24736 22.9908 9.00013 22.9803 8.75297 22.9684C7.64464 22.9164 6.88839 22.7393 6.22381 22.4831C5.52868 22.2219 4.89905 21.8121 4.37902 21.282C3.84886 20.7615 3.43862 20.1315 3.17693 19.4362C2.91964 18.7726 2.74464 18.0164 2.69256 16.9081C2.68096 16.6608 2.67054 16.4136 2.66131 16.1664L2.6561 15.9643C2.6369 15.2044 2.62822 14.4442 2.63006 13.6841V11.5425C2.62715 10.7827 2.63479 10.0229 2.65297 9.26327L2.66027 9.06121C2.6686 8.82783 2.67902 8.59658 2.69152 8.31952C2.7436 7.21013 2.9186 6.45492 3.17589 5.79034C3.43774 5.09515 3.84877 4.4658 4.38006 3.94659C4.89974 3.41612 5.52898 3.00552 6.22381 2.74346C6.88839 2.48617 7.6436 2.31117 8.75297 2.25909L9.49467 2.22784L9.69673 2.22263C10.4563 2.20344 11.2161 2.19476 11.9759 2.19659L14.1175 2.19763ZM13.0467 7.40595C12.3566 7.39622 11.6714 7.52371 11.0311 7.78102C10.3907 8.03841 9.8078 8.42044 9.31633 8.90496C8.82492 9.38954 8.43465 9.96696 8.16824 10.6036C7.90191 11.2403 7.76476 11.9236 7.76476 12.6138C7.76476 13.304 7.90191 13.9872 8.16824 14.6239C8.43465 15.2606 8.82492 15.8381 9.31633 16.3226C9.8078 16.8072 10.3907 17.1892 11.0311 17.4465C11.6714 17.7039 12.3566 17.8314 13.0467 17.8216C14.428 17.8216 15.7528 17.2729 16.7295 16.2961C17.7063 15.3194 18.255 13.9946 18.255 12.6133C18.255 11.2319 17.7063 9.90716 16.7295 8.93038C15.7528 7.95368 14.428 7.40595 13.0467 7.40595ZM13.0467 9.48933C13.4619 9.48166 13.8743 9.5568 14.2601 9.71035C14.6458 9.8639 14.9971 10.0928 15.2934 10.3836C15.5897 10.6745 15.8251 11.0214 15.9857 11.4042C16.1464 11.7871 16.2293 12.1981 16.2293 12.6133C16.2294 13.0285 16.1467 13.4395 15.9861 13.8224C15.8256 14.2052 15.5903 14.5523 15.2941 14.8432C14.9979 15.1341 14.6467 15.3631 14.261 15.5168C13.8753 15.6705 13.4628 15.7458 13.0478 15.7383C12.219 15.7383 11.4241 15.409 10.8381 14.823C10.252 14.2369 9.92279 13.442 9.92279 12.6133C9.92279 11.7844 10.252 10.9896 10.8381 10.4035C11.4241 9.81753 12.219 9.48827 13.0478 9.48827L13.0467 9.48933ZM18.5155 5.84346C18.1794 5.85692 17.8616 5.99987 17.6286 6.24239C17.3956 6.48491 17.2655 6.80819 17.2655 7.14451C17.2655 7.48081 17.3956 7.8041 17.6286 8.04665C17.8616 8.28912 18.1794 8.43209 18.5155 8.44558C18.8608 8.44558 19.192 8.30836 19.4362 8.06419C19.6804 7.82001 19.8175 7.48883 19.8175 7.14346C19.8175 6.79813 19.6804 6.46694 19.4362 6.22275C19.192 5.97856 18.8608 5.84138 18.5155 5.84138V5.84346Z" fill="white"/>
</g>
</svg>
