<svg width="25" height="25" viewBox="0 0 25 25" fill="none" xmlns="http://www.w3.org/2000/svg">
<g id="mdi:twitter">
<path id="Vector" d="M22.6472 6.19629C21.8772 6.54629 21.0472 6.77629 20.1872 6.88629C21.0672 6.35629 21.7472 5.51629 22.0672 4.50629C21.2372 5.00629 20.3172 5.35629 19.3472 5.55629C18.5572 4.69629 17.4472 4.19629 16.1872 4.19629C13.8372 4.19629 11.9172 6.11629 11.9172 8.48629C11.9172 8.82629 11.9572 9.15629 12.0272 9.46629C8.46723 9.28629 5.29723 7.57629 3.18723 4.98629C2.81723 5.61629 2.60723 6.35629 2.60723 7.13629C2.60723 8.62629 3.35723 9.94629 4.51723 10.6963C3.80723 10.6963 3.14723 10.4963 2.56723 10.1963V10.2263C2.56723 12.3063 4.04723 14.0463 6.00723 14.4363C5.37796 14.6085 4.71733 14.6325 4.07723 14.5063C4.34884 15.3588 4.88077 16.1047 5.59825 16.6392C6.31573 17.1737 7.18268 17.47 8.07723 17.4863C6.56086 18.6867 4.68123 19.3356 2.74723 19.3263C2.40723 19.3263 2.06723 19.3063 1.72723 19.2663C3.62723 20.4863 5.88723 21.1963 8.30723 21.1963C16.1872 21.1963 20.5172 14.6563 20.5172 8.98629C20.5172 8.79629 20.5172 8.61629 20.5072 8.42629C21.3472 7.82629 22.0672 7.06629 22.6472 6.19629Z" fill="white"/>
</g>
</svg>
