<svg width="48" height="49" viewBox="0 0 48 49" fill="none" xmlns="http://www.w3.org/2000/svg">
  <rect y="0.5" width="48" height="48" rx="16" fill="white" fill-opacity="0.1"/>
  <path d="M21.3199 25.78H24.4099V32.98C24.4099 34.04 25.7299 34.54 26.4299 33.74L33.9999 25.14C34.6599 24.39 34.1299 23.22 33.1299 23.22H30.0399V16.02C30.0399 14.96 28.7199 14.46 28.0199 15.26L20.4499 23.86C19.7999 24.61 20.3299 25.78 21.3199 25.78Z" fill="#EFEFF0"/>
  <path opacity="0.4" d="M20.5 17.25H13.5C13.09 17.25 12.75 16.91 12.75 16.5C12.75 16.09 13.09 15.75 13.5 15.75H20.5C20.91 15.75 21.25 16.09 21.25 16.5C21.25 16.91 20.91 17.25 20.5 17.25Z" fill="#EFEFF0"/>
  <path opacity="0.4" d="M19.5 33.25H13.5C13.09 33.25 12.75 32.91 12.75 32.5C12.75 32.09 13.09 31.75 13.5 31.75H19.5C19.91 31.75 20.25 32.09 20.25 32.5C20.25 32.91 19.91 33.25 19.5 33.25Z" fill="#EFEFF0"/>
  <path opacity="0.4" d="M16.5 25.25H13.5C13.09 25.25 12.75 24.91 12.75 24.5C12.75 24.09 13.09 23.75 13.5 23.75H16.5C16.91 23.75 17.25 24.09 17.25 24.5C17.25 24.91 16.91 25.25 16.5 25.25Z" fill="#EFEFF0"/>
</svg>
