<svg width="16" height="16" viewBox="0 0 16 16" fill="none" xmlns="http://www.w3.org/2000/svg">
<g clip-path="url(#clip0_2486_2910)">
<path d="M13.6569 2.34314C12.1459 0.832153 10.1368 0 8 0C5.86316 0 3.85413 0.832153 2.34314 2.34314C0.832153 3.85413 0 5.86316 0 8C0 10.1368 0.832153 12.1459 2.34314 13.6569C3.85413 15.1678 5.86316 16 8 16C10.1368 16 12.1459 15.1678 13.6569 13.6569C15.1678 12.1459 16 10.1368 16 8C16 5.86316 15.1678 3.85413 13.6569 2.34314ZM8 15.0625C4.10571 15.0625 0.9375 11.8943 0.9375 8C0.9375 4.10571 4.10571 0.9375 8 0.9375C11.8943 0.9375 15.0625 4.10571 15.0625 8C15.0625 11.8943 11.8943 15.0625 8 15.0625Z" fill="white" fill-opacity="0.87"/>
<path d="M8 2.0625C4.72607 2.0625 2.0625 4.72607 2.0625 8C2.0625 11.2739 4.72607 13.9375 8 13.9375C11.2739 13.9375 13.9375 11.2739 13.9375 8C13.9375 4.72607 11.2739 2.0625 8 2.0625ZM8 13C5.24304 13 3 10.7571 3 8C3 5.24292 5.24304 3 8 3C10.7571 3 13 5.24292 13 8C13 10.7571 10.7571 13 8 13Z" fill="white" fill-opacity="0.87"/>
<path d="M9.16931 6.56006L8 4.1908L6.83069 6.56006L4.21606 6.93994L6.10803 8.78418L5.66138 11.3881L8 10.1587L10.3385 11.3882L9.89185 8.78418L11.7838 6.93994L9.16931 6.56006ZM9.09338 9.67432L8 9.09961L6.90662 9.67444L7.11536 8.45679L6.23083 7.5946L7.45337 7.41699L8 6.3092L8.54675 7.41699L9.76917 7.5946L8.88452 8.45679L9.09338 9.67432Z" fill="white" fill-opacity="0.87"/>
</g>
<defs>
<clipPath id="clip0_2486_2910">
<rect width="16" height="16" fill="white"/>
</clipPath>
</defs>
</svg>
