<?xml version="1.0" encoding="utf-8"?>
<svg viewBox="202.009 192.449 19.5 19.5" width="19.5" height="19.5"
     xmlns="http://www.w3.org/2000/svg">
  <defs>
    <linearGradient gradientUnits="userSpaceOnUse" x1="211.759" y1="192.449" x2="211.759"
                    y2="211.949" id="gradient-0">
      <stop offset="0" style="stop-color: rgb(217, 70, 239);"/>
      <stop offset="1" style="stop-color: rgb(139, 92, 246);"/>
    </linearGradient>
  </defs>
  <path stroke-linecap="round" stroke-linejoin="round"
        d="M 209.572 206.103 L 208.759 208.949 L 207.946 206.103 C 207.519 204.608 206.351 203.44 204.856 203.013 L 202.009 202.199 L 204.855 201.386 C 206.35 200.959 207.518 199.79 207.945 198.296 L 208.759 195.449 L 209.572 198.295 C 209.999 199.789 211.168 200.958 212.662 201.385 L 215.509 202.199 L 212.663 203.012 C 211.169 203.439 210 204.607 209.573 206.102 L 209.572 206.103 Z M 218.018 198.914 L 217.759 199.949 L 217.5 198.914 C 217.198 197.705 216.254 196.76 215.045 196.458 L 214.009 196.199 L 215.045 195.94 C 216.254 195.637 217.198 194.693 217.5 193.484 L 217.759 192.449 L 218.018 193.484 C 218.32 194.693 219.265 195.638 220.474 195.94 L 221.509 196.199 L 220.474 196.458 C 219.265 196.76 218.32 197.704 218.018 198.914 Z M 216.653 210.766 L 216.259 211.949 L 215.865 210.766 C 215.641 210.094 215.114 209.567 214.442 209.343 L 213.259 208.949 L 214.442 208.555 C 215.114 208.331 215.641 207.804 215.865 207.132 L 216.259 205.949 L 216.653 207.132 C 216.877 207.804 217.404 208.331 218.076 208.555 L 219.259 208.949 L 218.076 209.343 C 217.404 209.567 216.877 210.094 216.653 210.766 Z"
        style="fill: url('#gradient-0');"
        transform="matrix(1, 0, 0, 1, 0, 1.4210854715202004e-14)"/>
</svg>
