<svg width="53" height="52" viewBox="0 0 53 52" fill="none" xmlns="http://www.w3.org/2000/svg">
<g filter="url(#filter0_d_2116_9110)">
<rect x="2.5" y="2" width="48" height="48" rx="14" fill="#CC5252"/>
<path d="M26.5003 12.667C23.007 12.667 20.167 15.507 20.167 19.0003C20.167 22.427 22.847 25.2003 26.3403 25.3203C26.447 25.307 26.5537 25.307 26.6337 25.3203C26.6603 25.3203 26.6737 25.3203 26.7003 25.3203C26.7137 25.3203 26.7137 25.3203 26.727 25.3203C30.1403 25.2003 32.8203 22.427 32.8337 19.0003C32.8337 15.507 29.9937 12.667 26.5003 12.667Z" fill="#EFEFF0"/>
<path d="M33.327 27.86C29.607 25.38 23.5403 25.38 19.7937 27.86C18.1003 28.9933 17.167 30.5267 17.167 32.1667C17.167 33.8067 18.1003 35.3267 19.7803 36.4467C21.647 37.7 24.1003 38.3267 26.5537 38.3267C29.007 38.3267 31.4603 37.7 33.327 36.4467C35.007 35.3133 35.9403 33.7933 35.9403 32.14C35.927 30.5 35.007 28.98 33.327 27.86Z" fill="#EFEFF0"/>
<path d="M27.913 31.84L29.0864 30.6667C29.473 30.28 29.473 29.64 29.0864 29.2534C28.6997 28.8667 28.0597 28.8667 27.673 29.2534L26.4997 30.4267L25.3264 29.2534C24.9397 28.8667 24.2997 28.8667 23.913 29.2534C23.5264 29.64 23.5264 30.28 23.913 30.6667L25.0864 31.84L23.913 33.0134C23.5264 33.4 23.5264 34.04 23.913 34.4267C24.113 34.6267 24.3664 34.72 24.6197 34.72C24.873 34.72 25.1264 34.6267 25.3264 34.4267L26.4997 33.2534L27.673 34.4267C27.873 34.6267 28.1264 34.72 28.3797 34.72C28.633 34.72 28.8864 34.6267 29.0864 34.4267C29.473 34.04 29.473 33.4 29.0864 33.0134L27.913 31.84Z" fill="#CC5252"/>
</g>
<defs>
<filter id="filter0_d_2116_9110" x="0.5" y="0" width="52" height="52" filterUnits="userSpaceOnUse" color-interpolation-filters="sRGB">
<feFlood flood-opacity="0" result="BackgroundImageFix"/>
<feColorMatrix in="SourceAlpha" type="matrix" values="0 0 0 0 0 0 0 0 0 0 0 0 0 0 0 0 0 0 127 0" result="hardAlpha"/>
<feMorphology radius="2" operator="dilate" in="SourceAlpha" result="effect1_dropShadow_2116_9110"/>
<feOffset/>
<feComposite in2="hardAlpha" operator="out"/>
<feColorMatrix type="matrix" values="0 0 0 0 1 0 0 0 0 1 0 0 0 0 1 0 0 0 0.15 0"/>
<feBlend mode="normal" in2="BackgroundImageFix" result="effect1_dropShadow_2116_9110"/>
<feBlend mode="normal" in="SourceGraphic" in2="effect1_dropShadow_2116_9110" result="shape"/>
</filter>
</defs>
</svg>
