<svg width="16" height="16" viewBox="0 0 16 16" fill="none" xmlns="http://www.w3.org/2000/svg">
<g clip-path="url(#clip0_2486_2952)">
<path d="M11.8521 1.81441V0.9375H12.2214C12.4803 0.9375 12.6902 0.727625 12.6902 0.46875C12.6902 0.209875 12.4803 0 12.2214 0H8.37972C8.12084 0 7.91097 0.209875 7.91097 0.46875C7.91097 0.727625 8.12084 0.9375 8.37972 0.9375H8.74903V1.81441C8.04006 2.01525 7.38703 2.35038 6.81884 2.79016H0.46875C0.209875 2.79016 0 3.00003 0 3.25891C0 3.51778 0.209875 3.72766 0.46875 3.72766H0.785187V6.79534C0.785187 7.46316 0.985687 8.10525 1.36503 8.65225C1.56347 8.93838 1.80319 9.18825 2.07572 9.39509C1.80319 9.60194 1.56344 9.85178 1.36503 10.1379C0.985687 10.685 0.785187 11.3271 0.785187 11.9949V15.0625H0.46875C0.209875 15.0625 0 15.2724 0 15.5312C0 15.7901 0.209875 16 0.46875 16H8.96647C9.22534 16 9.43522 15.7901 9.43522 15.5312C9.43522 15.2724 9.22534 15.0625 8.96647 15.0625H8.65006V12.7552C9.17278 12.9136 9.72684 12.9992 10.3006 12.9992C13.4432 12.9992 16 10.4423 16 7.29944C16 4.69425 14.2432 2.49175 11.8521 1.81441ZM9.68656 0.9375H10.9146V1.63287C10.7128 1.61116 10.5081 1.59972 10.3006 1.59972C10.0932 1.59972 9.88838 1.61116 9.68659 1.63287V0.9375H9.68656ZM3.19563 9.83122C3.37478 9.76062 3.49256 9.58766 3.49256 9.39509C3.49256 9.20253 3.37478 9.02956 3.19563 8.95897C2.30084 8.6065 1.72269 7.75722 1.72269 6.79537V3.72769H5.86263C5.07406 4.70566 4.60119 5.94828 4.60119 7.29947C4.60119 8.61487 5.04928 9.82747 5.80056 10.7931C5.4015 10.8171 4.99231 10.8988 4.56816 11.0395C3.12256 11.5194 2.21991 11.591 1.75941 11.581C1.89909 10.7951 2.43181 10.1321 3.19563 9.83122ZM7.71256 15.0625H1.72269V12.5192C1.76106 12.5202 1.80069 12.5209 1.84288 12.5209C2.43759 12.5209 3.41578 12.4099 4.86347 11.9293C5.57631 11.6927 6.22694 11.6612 6.84972 11.8324C7.11956 12.0383 7.40806 12.221 7.71256 12.3769V15.0625ZM10.3006 12.0617C7.67487 12.0617 5.53866 9.92537 5.53866 7.29944C5.53866 4.6735 7.67487 2.53719 10.3006 2.53719C12.9263 2.53719 15.0625 4.67353 15.0625 7.29944C15.0625 9.92534 12.9263 12.0617 10.3006 12.0617Z" fill="white" fill-opacity="0.6"/>
<path d="M10.3006 4.41418H10.3012C10.5601 4.41418 10.7697 4.20431 10.7697 3.94543C10.7697 3.68656 10.5595 3.47668 10.3006 3.47668C10.0417 3.47668 9.83185 3.68656 9.83185 3.94543C9.83185 4.20431 10.0417 4.41418 10.3006 4.41418Z" fill="white" fill-opacity="0.6"/>
<path d="M10.3006 10.1847C10.0417 10.1847 9.83185 10.3946 9.83185 10.6534C9.83185 10.9123 10.0417 11.1222 10.3006 11.1222H10.3012C10.5601 11.1222 10.7697 10.9123 10.7697 10.6534C10.7697 10.3946 10.5595 10.1847 10.3006 10.1847Z" fill="white" fill-opacity="0.6"/>
<path d="M6.94672 6.83069C6.68784 6.83069 6.47797 7.04056 6.47797 7.29944C6.47797 7.55831 6.68784 7.76819 6.94672 7.76819H6.94734C7.20622 7.76819 7.41578 7.55831 7.41578 7.29944C7.41578 7.04056 7.20559 6.83069 6.94672 6.83069Z" fill="white" fill-opacity="0.6"/>
<path d="M13.6544 6.83069C13.3956 6.83069 13.1857 7.04056 13.1857 7.29944C13.1857 7.55831 13.3956 7.76819 13.6544 7.76819H13.6551C13.914 7.76819 14.1235 7.55831 14.1235 7.29944C14.1235 7.04056 13.9134 6.83069 13.6544 6.83069Z" fill="white" fill-opacity="0.6"/>
<path d="M7.97238 5.39648H7.97301C8.23188 5.39648 8.44144 5.18661 8.44144 4.92773C8.44144 4.66886 8.23126 4.45898 7.97238 4.45898C7.71351 4.45898 7.50363 4.66886 7.50363 4.92773C7.50363 5.18661 7.71351 5.39648 7.97238 5.39648Z" fill="white" fill-opacity="0.6"/>
<path d="M12.7157 9.20239C12.4569 9.20239 12.247 9.41227 12.247 9.67114C12.247 9.93002 12.4569 10.1399 12.7157 10.1399H12.7164C12.9752 10.1399 13.1848 9.93002 13.1848 9.67114C13.1848 9.41227 12.9746 9.20239 12.7157 9.20239Z" fill="white" fill-opacity="0.6"/>
<path d="M7.9725 9.20227C7.71363 9.20227 7.50375 9.41215 7.50375 9.67102C7.50375 9.9299 7.71363 10.1398 7.9725 10.1398H7.97313C8.232 10.1398 8.44157 9.9299 8.44157 9.67102C8.44157 9.41215 8.23138 9.20227 7.9725 9.20227Z" fill="white" fill-opacity="0.6"/>
<path d="M12.7156 5.39661H12.7162C12.9751 5.39661 13.1847 5.18673 13.1847 4.92786C13.1847 4.66898 12.9745 4.45911 12.7156 4.45911C12.4567 4.45911 12.2469 4.66898 12.2469 4.92786C12.2469 5.18673 12.4567 5.39661 12.7156 5.39661Z" fill="white" fill-opacity="0.6"/>
<path d="M10.7617 7.08082V6.25378C10.7617 5.99491 10.5518 5.78503 10.2929 5.78503C10.0341 5.78503 9.82419 5.99491 9.82419 6.25378V7.27497C9.82419 7.39932 9.87356 7.5185 9.9615 7.60641L10.9269 8.57191C11.0185 8.66344 11.1385 8.70922 11.2584 8.70922C11.3783 8.70922 11.4983 8.66344 11.5898 8.57194C11.7729 8.38888 11.7729 8.0921 11.5898 7.909L10.7617 7.08082Z" fill="white" fill-opacity="0.6"/>
</g>
<defs>
<clipPath id="clip0_2486_2952">
<rect width="16" height="16" fill="white"/>
</clipPath>
</defs>
</svg>
