<svg width="16" height="16" viewBox="0 0 16 16" fill="none" xmlns="http://www.w3.org/2000/svg">
<path d="M14 6.585C13.8867 5.06968 13.2059 3.65288 12.0937 2.61755C10.9814 1.58222 9.51954 1.00458 8 1C6.48046 1.00458 5.01858 1.58222 3.90632 2.61755C2.79406 3.65288 2.1133 5.06968 2 6.585C1.70742 6.68844 1.45413 6.88008 1.27503 7.13351C1.09593 7.38694 0.999838 7.68967 1 8V11C1 11.3978 1.15804 11.7794 1.43934 12.0607C1.72064 12.342 2.10218 12.5 2.5 12.5H4C4.13261 12.5 4.25979 12.4473 4.35355 12.3536C4.44732 12.2598 4.5 12.1326 4.5 12V7C4.5 6.86739 4.44732 6.74021 4.35355 6.64645C4.25979 6.55268 4.13261 6.5 4 6.5H3.035C3.17955 5.28475 3.76478 4.16472 4.67982 3.35207C5.59487 2.53941 6.77619 2.09057 8 2.09057C9.22381 2.09057 10.4051 2.53941 11.3202 3.35207C12.2352 4.16472 12.8204 5.28475 12.965 6.5H12C11.8674 6.5 11.7402 6.55268 11.6464 6.64645C11.5527 6.74021 11.5 6.86739 11.5 7V12C11.4994 12.1244 11.5451 12.2445 11.6283 12.337C11.7116 12.4294 11.8262 12.4876 11.95 12.5C11.8347 13.0647 11.5279 13.5722 11.0815 13.9367C10.635 14.3011 10.0763 14.5001 9.5 14.5H9V14C9 13.8674 8.94732 13.7402 8.85355 13.6464C8.75979 13.5527 8.63261 13.5 8.5 13.5H6.5C6.36739 13.5 6.24021 13.5527 6.14645 13.6464C6.05268 13.7402 6 13.8674 6 14V15C6 15.1326 6.05268 15.2598 6.14645 15.3536C6.24021 15.4473 6.36739 15.5 6.5 15.5H9.5C10.3409 15.499 11.1534 15.1953 11.7887 14.6444C12.4241 14.0935 12.8399 13.3323 12.96 12.5H13C13.5304 12.5 14.0391 12.2893 14.4142 11.9142C14.7893 11.5391 15 11.0304 15 10.5V8C15.0002 7.68967 14.9041 7.38694 14.725 7.13351C14.5459 6.88008 14.2926 6.68844 14 6.585Z" fill="white" fill-opacity="0.6"/>
</svg>
