<svg width="12" height="12" viewBox="0 0 12 12" fill="none" xmlns="http://www.w3.org/2000/svg">
<g clip-path="url(#clip0_2294_8572)">
<path d="M10.5607 2.94534L11.3335 0.666793L9.05485 1.43953L7.12658 0.000488281L7.15733 2.40637L5.19287 3.79544L7.49047 4.50986L8.20478 6.8073L9.59396 4.84298L11.9998 4.87368L10.5607 2.94534Z" fill="white"/>
<path d="M6.8077 5.1928L5.88466 4.90576L0.2504 10.54C-0.0834668 10.8739 -0.0834668 11.4152 0.2504 11.7491C0.584244 12.0829 1.12553 12.0829 1.45942 11.7491L7.09418 6.11434L6.8077 5.1928Z" fill="white"/>
<path d="M7.17473 8.27986L6.57031 8.88428L7.17477 9.48873L7.77919 8.88431L7.17473 8.27986Z" fill="white"/>
<path d="M11.1293 6.80718L10.5249 7.41162L11.1294 8.01611L11.7338 7.41167L11.1293 6.80718Z" fill="white"/>
<path d="M2.89991 4.29003L2.29541 4.89453L2.89991 5.49904L3.50442 4.89453L2.89991 4.29003Z" fill="white"/>
<path d="M4.54054 0.516589L3.93604 1.12109L4.54054 1.7256L5.14504 1.12109L4.54054 0.516589Z" fill="white"/>
</g>
<defs>
<clipPath id="clip0_2294_8572">
<rect width="12" height="12" fill="white"/>
</clipPath>
</defs>
</svg>
